<?xml version="1.0" encoding="utf-8"?>
<!-- Generator: Adobe Illustrator 22.0.1, SVG Export Plug-In . SVG Version: 6.00 Build 0)  -->
<svg version="1.1" id="Layer_1" xmlns="http://www.w3.org/2000/svg" xmlns:xlink="http://www.w3.org/1999/xlink" x="0px" y="0px"
	 viewBox="0 0 42 42" style="enable-background:new 0 0 42 42;" xml:space="preserve">
<style type="text/css">
	.st0{fill:#999999;}
</style>
<title>bookmark.svg</title>
<desc>Created with Sketch.</desc>
<g id="Page-1_1_">
	<g id="bookmark.svg">
		<path id="Page-1" class="st0" d="M12.6,0C9.6,0,9,0.7,9,3.7v34.5c0,2.4-0.1,3.3,1.2,3.3c0.8,0,1.7-0.7,2.3-1.4
			c0,0,7.9-9.3,8.5-9.5c0-0.1,0,0,0.1,0c0.5,0.2,8.5,9.5,8.5,9.5c0.7,0.7,1.5,1.4,2.3,1.4c1.3,0,1.2-1,1.2-3.3V3.7
			c0-3-0.6-3.7-3.6-3.7H12.6z"/>
	</g>
</g>
</svg>
