<?xml version="1.0" encoding="utf-8"?>
<!-- Generator: Adobe Illustrator 22.0.1, SVG Export Plug-In . SVG Version: 6.00 Build 0)  -->
<svg version="1.1" xmlns="http://www.w3.org/2000/svg" xmlns:xlink="http://www.w3.org/1999/xlink" x="0px" y="0px"
	 viewBox="0 0 122 122" style="enable-background:new 0 0 122 122;" xml:space="preserve">
<style type="text/css">
	.st0{fill:#999999;}
</style>
<g id="Layer_2">
</g>
<g id="Layer_1">
	<title>clock_3x</title>
	<desc>Created with Sketch.</desc>
	<g id="Page-1_1_">
		<g>
			<path class="st0" d="M61.2,121.4C27.8,121.5,0.9,94.8,0.6,61.3C0.3,27.8,27.5,0.6,61.1,0.6c33.4,0.1,60.3,26.9,60.3,60.3
				C121.4,94.3,94.7,121.2,61.2,121.4z M61,109.4c26.8,0,48.2-21.4,48.3-48.2c0.2-26.9-21.5-48.6-48.4-48.6
				c-26.8,0-48.2,21.4-48.3,48.2C12.5,87.7,34.1,109.4,61,109.4z"/>
			<path class="st0" d="M64,64.2c6.6-4,12.3-7.4,17.9-10.8c2.6-1.6,5.4-2.6,7.4,0.5c2.1,3.3,0.1,5.5-2.8,7.2
				c-6.9,4.1-13.6,8.3-20.5,12.3c-7,4-11.1,1.6-11.1-6.5c0-12.3,0-24.6,0-36.9c0-3.3,0.5-6.4,4.5-6.4c3.9,0,4.6,3,4.6,6.3
				C64,41.1,64,52.2,64,64.2z"/>
		</g>
	</g>
</g>
</svg>
