<?xml version="1.0" encoding="utf-8"?>
<!-- Generator: Adobe Illustrator 22.0.1, SVG Export Plug-In . SVG Version: 6.00 Build 0)  -->
<svg version="1.1" id="Layer_1" xmlns="http://www.w3.org/2000/svg" xmlns:xlink="http://www.w3.org/1999/xlink" x="0px" y="0px"
	 viewBox="0 0 44 44" style="enable-background:new 0 0 44 44;" xml:space="preserve">
<style type="text/css">
	.st0{fill:#999999;}
</style>
<g id="active">
	<path id="Combined-Shape" class="st0" d="M8,32h28v4H8V32z M8,8h28v4H8V8z M8,16h12v4H8V16z M8,24h12v4H8V24z M24,16h12v12H24V16z"
		/>
	<path id="Fill-16" class="st0" d="M4,40h36V4H4V40L4,40z M2.9,44C1.3,44,0,42.7,0,41.1V2.9C0,1.3,1.3,0,2.9,0h38.2
		C42.7,0,44,1.3,44,2.9v38.2c0,1.6-1.3,2.9-2.9,2.9H2.9L2.9,44L2.9,44z"/>
</g>
</svg>
